<?xml version="1.0" encoding="UTF-8"?>
<svg version="1.1" xmlns="http://www.w3.org/2000/svg" width="500" height="500">
<path d="M0 0 C165 0 330 0 500 0 C500 165 500 330 500 500 C335 500 170 500 0 500 C0 335 0 170 0 0 Z " fill="#19355B" transform="translate(0,0)"/>
<path d="M0 0 C2.475 0.495 2.475 0.495 5 1 C4.34 4.96 3.68 8.92 3 13 C6.3 13 9.6 13 13 13 C12.33735914 6.93735778 12.33735914 6.93735778 11 1 C12.65 0.67 14.3 0.34 16 0 C17.29676812 4.61073111 16.71109139 8.33840089 16 13 C18.97 13 21.94 13 25 13 C24.505 7.06 24.505 7.06 24 1 C25.65 0.67 27.3 0.34 29 0 C29.5625 1.9375 29.5625 1.9375 30 4 C29.67 4.33 29.34 4.66 29 5 C28.76924918 6.34747084 28.58846937 7.70377565 28.4375 9.0625 C28.293125 10.361875 28.14875 11.66125 28 13 C28.969375 13.144375 29.93875 13.28875 30.9375 13.4375 C34 14 34 14 35 15 C35.04063832 16.66617115 35.042721 18.33388095 35 20 C39.02992782 19.44687265 43.02022924 18.8441938 47 18 C47.495 20.475 47.495 20.475 48 23 C46.68 23.66 45.36 24.32 44 25 C43.67 24.67 43.34 24.34 43 24 C41.65252916 23.76924918 40.29622435 23.58846937 38.9375 23.4375 C37.638125 23.293125 36.33875 23.14875 35 23 C35 25.97 35 28.94 35 32 C36.258125 31.855625 37.51625 31.71125 38.8125 31.5625 C39.87404297 31.44068359 39.87404297 31.44068359 40.95703125 31.31640625 C43.19396393 31.02829265 43.19396393 31.02829265 46 30 C46.66 30.33 47.32 30.66 48 31 C48 32.65 48 34.3 48 36 C46.34385343 36.38218767 44.67542976 36.71395102 43 37 C42.67 36.67 42.34 36.34 42 36 C39.67182036 35.63239269 37.3381615 35.29758419 35 35 C35 37.97 35 40.94 35 44 C40.94 43.505 40.94 43.505 47 43 C47.495 45.475 47.495 45.475 48 48 C43.38926889 49.29676812 39.66159911 48.71109139 35 48 C34.855625 48.804375 34.71125 49.60875 34.5625 50.4375 C34 53 34 53 33 54 C31.33382885 54.04063832 29.66611905 54.042721 28 54 C28.57663337 59.26233754 28.57663337 59.26233754 29.625 64.4375 C29.74875 64.953125 29.8725 65.46875 30 66 C29.67 66.33 29.34 66.66 29 67 C27.35 67 25.7 67 24 67 C24.33 62.71 24.66 58.42 25 54 C22.03 54 19.06 54 16 54 C16.495 60.435 16.495 60.435 17 67 C15.35 67 13.7 67 12 67 C11.4375 65.0625 11.4375 65.0625 11 63 C11.33 62.67 11.66 62.34 12 62 C12.23075082 60.65252916 12.41153063 59.29622435 12.5625 57.9375 C12.7790625 55.9884375 12.7790625 55.9884375 13 54 C9.7 54 6.4 54 3 54 C3.66264086 60.06264222 3.66264086 60.06264222 5 66 C2.525 66.495 2.525 66.495 0 67 C-0.96661363 63.87819599 -0.98988909 61.47916205 -0.5625 58.25 C-0.46066406 57.45078125 -0.35882813 56.6515625 -0.25390625 55.828125 C-0.17011719 55.22484375 -0.08632812 54.6215625 0 54 C-0.804375 53.855625 -1.60875 53.71125 -2.4375 53.5625 C-5 53 -5 53 -6 52 C-6.04063832 50.33382885 -6.042721 48.66611905 -6 47 C-12.06264222 47.66264086 -12.06264222 47.66264086 -18 49 C-18.33 47.35 -18.66 45.7 -19 44 C-17.0625 43.4375 -17.0625 43.4375 -15 43 C-14.67 43.33 -14.34 43.66 -14 44 C-12.65252916 44.23075082 -11.29622435 44.41153063 -9.9375 44.5625 C-8.638125 44.706875 -7.33875 44.85125 -6 45 C-6 41.7 -6 38.4 -6 35 C-11.26233754 35.57663337 -11.26233754 35.57663337 -16.4375 36.625 C-16.953125 36.74875 -17.46875 36.8725 -18 37 C-18.33 36.67 -18.66 36.34 -19 36 C-19 34.35 -19 32.7 -19 31 C-14.71 31.33 -10.42 31.66 -6 32 C-6 28.7 -6 25.4 -6 22 C-12.06264222 22.66264086 -12.06264222 22.66264086 -18 24 C-18.33 22.35 -18.66 20.7 -19 19 C-15.61725734 17.87241911 -14.23221777 18.18249738 -10.8125 18.9375 C-9.91144531 19.13214844 -9.01039062 19.32679688 -8.08203125 19.52734375 C-7.39496094 19.68332031 -6.70789063 19.83929688 -6 20 C-6.04125 19.21625 -6.0825 18.4325 -6.125 17.625 C-6 15 -6 15 -4 13 C-1.375 12.875 -1.375 12.875 1 13 C1 10.36 1 7.72 1 5 C0.34 5 -0.32 5 -1 5 C-0.67 3.35 -0.34 1.7 0 0 Z " fill="#183B64" transform="translate(136,200)"/>
<path d="M0 0 C2.475 0.495 2.475 0.495 5 1 C4.34 4.96 3.68 8.92 3 13 C6.3 13 9.6 13 13 13 C12.33735914 6.93735778 12.33735914 6.93735778 11 1 C12.65 0.67 14.3 0.34 16 0 C17.29676812 4.61073111 16.71109139 8.33840089 16 13 C18.97 13 21.94 13 25 13 C24.505 7.06 24.505 7.06 24 1 C25.65 0.67 27.3 0.34 29 0 C29.5625 1.9375 29.5625 1.9375 30 4 C29.67 4.33 29.34 4.66 29 5 C28.76924918 6.34747084 28.58846937 7.70377565 28.4375 9.0625 C28.293125 10.361875 28.14875 11.66125 28 13 C28.969375 13.144375 29.93875 13.28875 30.9375 13.4375 C34 14 34 14 35 15 C35.04063832 16.66617115 35.042721 18.33388095 35 20 C39.02992782 19.44687265 43.02022924 18.8441938 47 18 C47.495 20.475 47.495 20.475 48 23 C46.68 23.66 45.36 24.32 44 25 C43.67 24.67 43.34 24.34 43 24 C41.65252916 23.76924918 40.29622435 23.58846937 38.9375 23.4375 C37.638125 23.293125 36.33875 23.14875 35 23 C35 25.97 35 28.94 35 32 C36.258125 31.855625 37.51625 31.71125 38.8125 31.5625 C39.87404297 31.44068359 39.87404297 31.44068359 40.95703125 31.31640625 C43.19396393 31.02829265 43.19396393 31.02829265 46 30 C46.66 30.33 47.32 30.66 48 31 C48 32.65 48 34.3 48 36 C46.34385343 36.38218767 44.67542976 36.71395102 43 37 C42.67 36.67 42.34 36.34 42 36 C39.67182036 35.63239269 37.3381615 35.29758419 35 35 C35 37.97 35 40.94 35 44 C40.94 43.505 40.94 43.505 47 43 C47.495 45.475 47.495 45.475 48 48 C43.38926889 49.29676812 39.66159911 48.71109139 35 48 C34.855625 48.804375 34.71125 49.60875 34.5625 50.4375 C34 53 34 53 33 54 C31.33382885 54.04063832 29.66611905 54.042721 28 54 C28.57663337 59.26233754 28.57663337 59.26233754 29.625 64.4375 C29.74875 64.953125 29.8725 65.46875 30 66 C29.67 66.33 29.34 66.66 29 67 C27.35 67 25.7 67 24 67 C24.33 62.71 24.66 58.42 25 54 C22.03 54 19.06 54 16 54 C16.495 60.435 16.495 60.435 17 67 C15.35 67 13.7 67 12 67 C11.4375 65.0625 11.4375 65.0625 11 63 C11.33 62.67 11.66 62.34 12 62 C12.23075082 60.65252916 12.41153063 59.29622435 12.5625 57.9375 C12.7790625 55.9884375 12.7790625 55.9884375 13 54 C9.7 54 6.4 54 3 54 C3.66264086 60.06264222 3.66264086 60.06264222 5 66 C2.525 66.495 2.525 66.495 0 67 C-0.96661363 63.87819599 -0.98988909 61.47916205 -0.5625 58.25 C-0.46066406 57.45078125 -0.35882813 56.6515625 -0.25390625 55.828125 C-0.17011719 55.22484375 -0.08632812 54.6215625 0 54 C-0.804375 53.855625 -1.60875 53.71125 -2.4375 53.5625 C-5 53 -5 53 -6 52 C-6.04063832 50.33382885 -6.042721 48.66611905 -6 47 C-12.06264222 47.66264086 -12.06264222 47.66264086 -18 49 C-18.33 47.35 -18.66 45.7 -19 44 C-17.0625 43.4375 -17.0625 43.4375 -15 43 C-14.67 43.33 -14.34 43.66 -14 44 C-12.65252916 44.23075082 -11.29622435 44.41153063 -9.9375 44.5625 C-8.638125 44.706875 -7.33875 44.85125 -6 45 C-6 41.7 -6 38.4 -6 35 C-11.26233754 35.57663337 -11.26233754 35.57663337 -16.4375 36.625 C-16.953125 36.74875 -17.46875 36.8725 -18 37 C-18.33 36.67 -18.66 36.34 -19 36 C-19 34.35 -19 32.7 -19 31 C-14.71 31.33 -10.42 31.66 -6 32 C-6 28.7 -6 25.4 -6 22 C-12.06264222 22.66264086 -12.06264222 22.66264086 -18 24 C-18.33 22.35 -18.66 20.7 -19 19 C-15.61725734 17.87241911 -14.23221777 18.18249738 -10.8125 18.9375 C-9.91144531 19.13214844 -9.01039062 19.32679688 -8.08203125 19.52734375 C-7.39496094 19.68332031 -6.70789063 19.83929688 -6 20 C-6.04125 19.21625 -6.0825 18.4325 -6.125 17.625 C-6 15 -6 15 -4 13 C-1.375 12.875 -1.375 12.875 1 13 C1 10.36 1 7.72 1 5 C0.34 5 -0.32 5 -1 5 C-0.67 3.35 -0.34 1.7 0 0 Z M-4 17 C-4.10082764 19.43660446 -4.13972603 21.84424701 -4.1328125 24.28125 C-4.13376923 25.00993286 -4.13472595 25.73861572 -4.13571167 26.48937988 C-4.13639335 28.0327971 -4.13453988 29.57621717 -4.13037109 31.11962891 C-4.12502262 33.489974 -4.13031642 35.86012959 -4.13671875 38.23046875 C-4.13605797 39.72656292 -4.1347768 41.22265697 -4.1328125 42.71875 C-4.13483673 43.43228638 -4.13686096 44.14582275 -4.13894653 44.88098145 C-4.41648651 48.22486429 -4.41648651 48.22486429 -3 51 C-0.40640678 51.08851529 2.16039691 51.11525945 4.75390625 51.09765625 C5.52935287 51.0962413 6.3047995 51.09482635 7.10374451 51.09336853 C9.59003494 51.08775345 12.0762366 51.07519846 14.5625 51.0625 C16.24413933 51.05748694 17.92578006 51.0529237 19.60742188 51.04882812 C23.73831566 51.03777913 27.86914276 51.02050445 32 51 C32.0246519 46.17619198 32.04283693 41.35242033 32.05493164 36.52856445 C32.05997174 34.88630536 32.06680378 33.24405077 32.07543945 31.60180664 C32.08751926 29.24624521 32.09323139 26.89074291 32.09765625 24.53515625 C32.10281754 23.79660904 32.10797882 23.05806183 32.11329651 22.2971344 C32.1134925 20.53101912 32.06194719 18.76502854 32 17 C30.2670702 15.2670702 28.03785664 15.87179954 25.72851562 15.86105347 C24.99310547 15.8630777 24.25769531 15.86510193 23.5 15.8671875 C22.74912109 15.86623077 21.99824219 15.86527405 21.22460938 15.86428833 C19.63411373 15.86360662 18.04361533 15.86546028 16.453125 15.86962891 C14.01035345 15.87497733 11.56776579 15.86968366 9.125 15.86328125 C7.58333293 15.86394203 6.04166597 15.8652232 4.5 15.8671875 C3.76458984 15.86516327 3.02917969 15.86313904 2.27148438 15.86105347 C-1.15246342 15.56943487 -1.15246342 15.56943487 -4 17 Z " fill="#1796CE" transform="translate(136,200)"/>
<path d="M0 0 C1.98 0 3.96 0 6 0 C8.10260725 5.55689059 9.00344882 11.16305739 10 17 C11.32 11.39 12.64 5.78 14 0 C16.31 0 18.62 0 21 0 C22.75734451 4.97361654 24.32584613 9.7415998 25 15 C25.33 15 25.66 15 26 15 C26.99 10.05 27.98 5.1 29 0 C31.31 0 33.62 0 36 0 C34.60213923 8.84698726 32.39537771 17.38361708 30 26 C27.36 26 24.72 26 22 26 C20.68 21.71 19.36 17.42 18 13 C17.67 13 17.34 13 17 13 C16.01 17.29 15.02 21.58 14 26 C11.36 26 8.72 26 6 26 C4.05405824 21.59095178 2.95853821 17.11276671 1.875 12.4375 C1.69324219 11.68275391 1.51148438 10.92800781 1.32421875 10.15039062 C1.15277344 9.41884766 0.98132813 8.68730469 0.8046875 7.93359375 C0.64983887 7.27415771 0.49499023 6.61472168 0.33544922 5.93530273 C0 4 0 4 0 0 Z " fill="#F1F3F5" transform="translate(275,212)"/>
<path d="M0 0 C3.20887887 2.06794416 4.92612398 3.4750655 6.8125 6.8125 C7.51607659 11.1604452 7.33469733 14.66863919 5.5 18.6875 C2.53072636 22.42658532 0.71218585 24.42587522 -4.23828125 25.0859375 C-8.37190861 25.27155807 -11.28688967 25.24780097 -14.625 22.625 C-18.10655631 18.80377966 -19.00649238 16.47173651 -19.5625 11.375 C-19.01108232 6.13653208 -16.92522282 3.22146445 -12.875 -0.0625 C-8.25878541 -1.9948689 -4.6470785 -1.73126454 0 0 Z " fill="#F5F6F8" transform="translate(265.1875,213.1875)"/>
<path d="M0 0 C2.206875 -0.061875 4.41375 -0.12375 6.6875 -0.1875 C8.54955078 -0.23970703 8.54955078 -0.23970703 10.44921875 -0.29296875 C14.2285056 0.0188536 16.05233808 0.6593705 19 3 C20 5.9375 20 5.9375 20 9 C18.5625 11.375 18.5625 11.375 17 13 C17.495 13.37125 17.99 13.7425 18.5 14.125 C20 16 20 16 20.4375 18.9375 C20 22 20 22 18.48828125 24.17578125 C15.01158947 26.7246275 11.87184404 26.43788559 7.75 26.25 C5.1925 26.1675 2.635 26.085 0 26 C0 17.42 0 8.84 0 0 Z " fill="#F8F8FA" transform="translate(367,212)"/>
<path d="M0 0 C2.206875 -0.061875 4.41375 -0.12375 6.6875 -0.1875 C8.54955078 -0.23970703 8.54955078 -0.23970703 10.44921875 -0.29296875 C14.21666932 0.01787701 16.02794917 0.7227143 19 3 C20.54586876 6.09173752 20.29359521 8.59429552 20 12 C18 14.4375 18 14.4375 16 16 C16.28875 16.721875 16.5775 17.44375 16.875 18.1875 C17.91666667 20.79166667 18.95833333 23.39583333 20 26 C17.69 26 15.38 26 13 26 C9 19.25 9 19.25 9 17 C8.34 17 7.68 17 7 17 C7 19.97 7 22.94 7 26 C4.69 26 2.38 26 0 26 C0 17.42 0 8.84 0 0 Z " fill="#EEF0F3" transform="translate(223,212)"/>
<path d="M0 0 C7.26 0 14.52 0 22 0 C22 1.65 22 3.3 22 5 C18.7 5 15.4 5 12 5 C12 5.99 12 6.98 12 8 C15.3 8 18.6 8 22 8 C22 9.65 22 11.3 22 13 C20.68 13 19.36 13 18 13 C18 13.99 18 14.98 18 16 C19.32 16 20.64 16 22 16 C22 17.65 22 19.3 22 21 C14.74 21 7.48 21 0 21 C0 14.07 0 7.14 0 0 Z " fill="#18375E" transform="translate(139,223)"/>
<path d="M0 0 C2.77513548 1.61333288 5.05786302 3.43338168 7 6 C7 6.99 7 7.98 7 9 C4.69 9 2.38 9 0 9 C0 8.34 0 7.68 0 7 C-4.0100934 6.82135369 -4.0100934 6.82135369 -8 7 C-10.4282022 8.99557113 -10.4282022 8.99557113 -10.3125 12.9375 C-10.23015998 15.45344502 -10.10091012 16.80411565 -8.9375 19.0625 C-5.7970884 20.582054 -3.29352683 19.79288609 0 19 C0.33 18.34 0.66 17.68 1 17 C-1.31 16.67 -3.62 16.34 -6 16 C-6 14.35 -6 12.7 -6 11 C-1.38 11 3.24 11 8 11 C8 18.90510949 8 18.90510949 5.1875 21.875 C4.66542969 22.44992188 4.14335937 23.02484375 3.60546875 23.6171875 C0.3073729 26.45788319 -3.56136552 26.39496407 -7.7109375 26.34765625 C-11.70174842 25.74154333 -13.30051704 23.96284715 -16 21 C-18.28466838 17.05375462 -18.47409741 13.50392543 -18 9 C-14.06814291 1.42753449 -8.43524284 -1.81063134 0 0 Z " fill="#EEF0F3" transform="translate(212,212)"/>
<path d="M0 0 C2.31 0 4.62 0 7 0 C7 3.3 7 6.6 7 10 C9.97 10 12.94 10 16 10 C16 6.7 16 3.4 16 0 C18.31 0 20.62 0 23 0 C23 8.58 23 17.16 23 26 C20.69 26 18.38 26 16 26 C16 22.37 16 18.74 16 15 C12.7 15 9.4 15 6 15 C6 18.63 6 22.26 6 26 C4.02 26 2.04 26 0 26 C0 17.42 0 8.84 0 0 Z " fill="#E8EBEF" transform="translate(314,212)"/>
<path d="M0 0 C1.98 0 3.96 0 6 0 C6.33 5.94 6.66 11.88 7 18 C9.31 18.66 11.62 19.32 14 20 C14.33 13.4 14.66 6.8 15 0 C16.98 0 18.96 0 21 0 C21.11667875 3.22886009 21.18740546 6.45717445 21.25 9.6875 C21.30027344 11.05551758 21.30027344 11.05551758 21.3515625 12.45117188 C21.41507561 16.81769795 21.43722486 19.28725121 19.109375 23.08203125 C15.56047024 26.30890577 12.90960932 26.33396966 8.26171875 26.2890625 C4.91365699 25.86115823 3.23933019 24.44926739 1 22 C0.05862745 19.17588235 -0.11725382 17.47081968 -0.09765625 14.55078125 C-0.09443359 13.70322266 -0.09121094 12.85566406 -0.08789062 11.98242188 C-0.07951172 11.10134766 -0.07113281 10.22027344 -0.0625 9.3125 C-0.05798828 8.41982422 -0.05347656 7.52714844 -0.04882812 6.60742188 C-0.03704983 4.40488013 -0.02060164 2.20247401 0 0 Z " fill="#F7F8F9" transform="translate(341,212)"/>
<path d="M0 0 C1.12019531 -0.00128906 2.24039063 -0.00257813 3.39453125 -0.00390625 C4.57402344 -0.00003906 5.75351563 0.00382813 6.96875 0.0078125 C8.73798828 0.00201172 8.73798828 0.00201172 10.54296875 -0.00390625 C12.22326172 -0.00197266 12.22326172 -0.00197266 13.9375 0 C14.97326172 0.00112793 16.00902344 0.00225586 17.07617188 0.00341797 C19.46875 0.1328125 19.46875 0.1328125 20.46875 1.1328125 C20.72176239 5.27243533 20.65397549 9.42387246 20.65625 13.5703125 C20.66849609 14.74142578 20.68074219 15.91253906 20.69335938 17.11914062 C20.69625977 18.79459961 20.69625977 18.79459961 20.69921875 20.50390625 C20.70332764 21.53443115 20.70743652 22.56495605 20.71166992 23.62670898 C20.46875 26.1328125 20.46875 26.1328125 18.46875 28.1328125 C16.16210938 28.39160156 16.16210938 28.39160156 13.3125 28.3984375 C11.77916016 28.40230469 11.77916016 28.40230469 10.21484375 28.40625 C9.14363281 28.39851563 8.07242188 28.39078125 6.96875 28.3828125 C5.36193359 28.39441406 5.36193359 28.39441406 3.72265625 28.40625 C2.70042969 28.40367187 1.67820313 28.40109375 0.625 28.3984375 C-0.31537109 28.39618164 -1.25574219 28.39392578 -2.22460938 28.39160156 C-4.53125 28.1328125 -4.53125 28.1328125 -6.53125 26.1328125 C-6.77416992 23.62670898 -6.77416992 23.62670898 -6.76171875 20.50390625 C-6.75978516 19.38693359 -6.75785156 18.26996094 -6.75585938 17.11914062 C-6.74361328 15.94802734 -6.73136719 14.77691406 -6.71875 13.5703125 C-6.71810547 12.39533203 -6.71746094 11.22035156 -6.71679688 10.00976562 C-6.66479077 0.00725786 -6.66479077 0.00725786 0 0 Z M-4.53125 3.1328125 C-4.53125 10.0628125 -4.53125 16.9928125 -4.53125 24.1328125 C2.72875 24.1328125 9.98875 24.1328125 17.46875 24.1328125 C17.46875 22.4828125 17.46875 20.8328125 17.46875 19.1328125 C16.14875 19.1328125 14.82875 19.1328125 13.46875 19.1328125 C13.46875 18.1428125 13.46875 17.1528125 13.46875 16.1328125 C14.78875 16.1328125 16.10875 16.1328125 17.46875 16.1328125 C17.46875 14.4828125 17.46875 12.8328125 17.46875 11.1328125 C14.16875 11.1328125 10.86875 11.1328125 7.46875 11.1328125 C7.46875 10.1428125 7.46875 9.1528125 7.46875 8.1328125 C10.76875 8.1328125 14.06875 8.1328125 17.46875 8.1328125 C17.46875 6.4828125 17.46875 4.8328125 17.46875 3.1328125 C10.20875 3.1328125 2.94875 3.1328125 -4.53125 3.1328125 Z " fill="#1891C8" transform="translate(143.53125,219.8671875)"/>
<path d="M0 0 C2.63769276 2.21225844 2.94923246 3.59385968 3.375 7 C2.94492745 10.44058039 2.70415801 11.80287161 0 14 C-2.84683105 14.46573923 -5.06787431 14.27925007 -8 14 C-10.41486943 11.58513057 -10.2961925 10.87292211 -10.3125 7.5625 C-10.32925781 6.78003906 -10.34601563 5.99757812 -10.36328125 5.19140625 C-9.40341918 -0.59872949 -5.08922104 -0.63615263 0 0 Z " fill="#203B60" transform="translate(263,218)"/>
<path d="M0 0 C0.721875 0.00257813 1.44375 0.00515625 2.1875 0.0078125 C2.909375 0.00523437 3.63125 0.00265625 4.375 0 C6.1875 0.1328125 6.1875 0.1328125 7.1875 1.1328125 C7.25929964 2.65209288 7.27142007 4.17448732 7.25 5.6953125 C7.24097656 6.52160156 7.23195313 7.34789062 7.22265625 8.19921875 C7.21105469 8.83730469 7.19945312 9.47539062 7.1875 10.1328125 C6.8575 9.1428125 6.5275 8.1528125 6.1875 7.1328125 C3.5475 7.1328125 0.9075 7.1328125 -1.8125 7.1328125 C-2.1425 8.1228125 -2.4725 9.1128125 -2.8125 10.1328125 C-2.83939216 8.65374358 -2.85884621 7.17453767 -2.875 5.6953125 C-2.88660156 4.87160156 -2.89820313 4.04789063 -2.91015625 3.19921875 C-2.78580037 0.56784823 -2.63135505 0.19281481 0 0 Z " fill="#9CA8B8" transform="translate(261.8125,248.8671875)"/>
<path d="M0 0 C2.64 0 5.28 0 8 0 C8.33 0.99 8.66 1.98 9 3 C8.34 3 7.68 3 7 3 C7 2.34 7 1.68 7 1 C5.02 1 3.04 1 1 1 C1 1.99 1 2.98 1 4 C3.31 4 5.62 4 8 4 C8.38218767 5.65614657 8.71395102 7.32457024 9 9 C8 10 8 10 6.15234375 10.09765625 C4.1015625 10.06510417 2.05078125 10.03255208 0 10 C-0.33 9.01 -0.66 8.02 -1 7 C1.64 7.33 4.28 7.66 7 8 C7 7.34 7 6.68 7 6 C6.05125 6.04125 5.1025 6.0825 4.125 6.125 C1 6 1 6 -1 4 C-0.625 1.875 -0.625 1.875 0 0 Z " fill="#CAD0D9" transform="translate(276,249)"/>
<path d="M0 0 C2.05078125 0.03255208 4.1015625 0.06510417 6.15234375 0.09765625 C6.48234375 1.08765625 6.81234375 2.07765625 7.15234375 3.09765625 C6.49234375 3.09765625 5.83234375 3.09765625 5.15234375 3.09765625 C5.15234375 2.43765625 5.15234375 1.77765625 5.15234375 1.09765625 C2.18168866 1.43993197 2.18168866 1.43993197 -0.84765625 2.09765625 C-1.17765625 2.75765625 -1.50765625 3.41765625 -1.84765625 4.09765625 C-0.73390625 4.05640625 0.37984375 4.01515625 1.52734375 3.97265625 C5.15234375 4.09765625 5.15234375 4.09765625 7.15234375 6.09765625 C6.77734375 8.22265625 6.77734375 8.22265625 6.15234375 10.09765625 C3.51234375 10.09765625 0.87234375 10.09765625 -1.84765625 10.09765625 C-1.84765625 9.10765625 -1.84765625 8.11765625 -1.84765625 7.09765625 C0.46234375 7.42765625 2.77234375 7.75765625 5.15234375 8.09765625 C5.15234375 7.43765625 5.15234375 6.77765625 5.15234375 6.09765625 C2.84234375 6.09765625 0.53234375 6.09765625 -1.84765625 6.09765625 C-2.22984392 4.44150968 -2.56160727 2.77308601 -2.84765625 1.09765625 C-1.84765625 0.09765625 -1.84765625 0.09765625 0 0 Z " fill="#D1D7DE" transform="translate(324.84765625,248.90234375)"/>
<path d="M0 0 C3.3 0 6.6 0 10 0 C10 0.33 10 0.66 10 1 C7.03 1 4.06 1 1 1 C1 1.99 1 2.98 1 4 C3.64 4 6.28 4 9 4 C9 4.66 9 5.32 9 6 C6.69 6 4.38 6 2 6 C2 6.66 2 7.32 2 8 C4.64 8 7.28 8 10 8 C10 8.66 10 9.32 10 10 C6.7 10 3.4 10 0 10 C0 6.7 0 3.4 0 0 Z " fill="#D3D9E0" transform="translate(306,249)"/>
<path d="M0 0 C2.64 0 5.28 0 8 0 C8 0.99 8 1.98 8 3 C7.67 2.67 7.34 2.34 7 2 C5.33382885 1.95936168 3.66611905 1.957279 2 2 C1.67 2.66 1.34 3.32 1 4 C3.31 4 5.62 4 8 4 C8.38218767 5.65614657 8.71395102 7.32457024 9 9 C8 10 8 10 4.4375 10.0625 C3.303125 10.041875 2.16875 10.02125 1 10 C1 9.01 1 8.02 1 7 C1.33 7.33 1.66 7.66 2 8 C3.66617115 8.04063832 5.33388095 8.042721 7 8 C7.33 7.34 7.66 6.68 8 6 C6.329375 6.061875 6.329375 6.061875 4.625 6.125 C1 6 1 6 -1 4 C-0.625 1.875 -0.625 1.875 0 0 Z " fill="#D9DDE3" transform="translate(291,249)"/>
<path d="M0 0 C2.875 -0.125 2.875 -0.125 6 0 C6.66 0.66 7.32 1.32 8 2 C7.625 4.125 7.625 4.125 7 6 C4.69 6 2.38 6 0 6 C0 4.02 0 2.04 0 0 Z " fill="#2C4568" transform="translate(373,227)"/>
<path d="M0 0 C2.05078125 0.03255208 4.1015625 0.06510417 6.15234375 0.09765625 C6.15234375 1.08765625 6.15234375 2.07765625 6.15234375 3.09765625 C5.82234375 2.76765625 5.49234375 2.43765625 5.15234375 2.09765625 C3.4861726 2.05701793 1.8184628 2.05493525 0.15234375 2.09765625 C-0.17765625 4.07765625 -0.50765625 6.05765625 -0.84765625 8.09765625 C1.79234375 7.76765625 4.43234375 7.43765625 7.15234375 7.09765625 C6.82234375 8.08765625 6.49234375 9.07765625 6.15234375 10.09765625 C2.77734375 10.22265625 2.77734375 10.22265625 -0.84765625 10.09765625 C-2.84765625 8.09765625 -2.84765625 8.09765625 -3.03515625 4.53515625 C-2.79584438 0.1477719 -2.79584438 0.1477719 0 0 Z " fill="#CFD5DD" transform="translate(230.84765625,248.90234375)"/>
<path d="M0 0 C1.98 0 3.96 0 6 0 C6.38218767 1.65614657 6.71395102 3.32457024 7 5 C6 6 6 6 2.9375 6.0625 C1.4834375 6.0315625 1.4834375 6.0315625 0 6 C0 4.02 0 2.04 0 0 Z " fill="#344D6E" transform="translate(373,217)"/>
<path d="M0 0 C1.98 0 3.96 0 6 0 C6.625 1.875 6.625 1.875 7 4 C5 6 5 6 2.375 6.125 C1.59125 6.08375 0.8075 6.0425 0 6 C0 4.02 0 2.04 0 0 Z " fill="#233E62" transform="translate(230,218)"/>
<path d="M0 0 C0.66 0.33 1.32 0.66 2 1 C1.67 2.32 1.34 3.64 1 5 C-1.64 5 -4.28 5 -7 5 C-7 4.01 -7 3.02 -7 2 C-4.69 2.33 -2.38 2.66 0 3 C0 2.01 0 1.02 0 0 Z " fill="#C7CED7" transform="translate(330,254)"/>
<path d="M0 0 C1.98 0 3.96 0 6 0 C6.33 0.99 6.66 1.98 7 3 C4.36 3 1.72 3 -1 3 C-0.67 2.01 -0.34 1.02 0 0 Z " fill="#334C6D" transform="translate(324,250)"/>
<path d="M0 0 C1.65 0 3.3 0 5 0 C5.33 0.99 5.66 1.98 6 3 C3.69 3 1.38 3 -1 3 C-0.67 2.01 -0.34 1.02 0 0 Z " fill="#2B4568" transform="translate(293,250)"/>
<path d="M0 0 C1.98 0 3.96 0 6 0 C6.33 0.99 6.66 1.98 7 3 C4.69 3 2.38 3 0 3 C0 2.01 0 1.02 0 0 Z " fill="#2E476A" transform="translate(277,250)"/>
<path d="M0 0 C1.98 0 3.96 0 6 0 C5.67 0.99 5.34 1.98 5 3 C3.35 3 1.7 3 0 3 C0 2.01 0 1.02 0 0 Z " fill="#3B5373" transform="translate(293,255)"/>
</svg>
